<mxfile host="Electron" agent="Mozilla/5.0 (Windows NT 10.0; Win64; x64) AppleWebKit/537.36 (KHTML, like Gecko) draw.io/28.0.4 Chrome/138.0.7204.97 Electron/37.2.1 Safari/537.36" version="28.0.4">
  <diagram name="Page-1" id="VGZ53gnqZyQUHbnN6SPx">
    <mxGraphModel dx="1042" dy="626" grid="0" gridSize="10" guides="1" tooltips="1" connect="1" arrows="1" fold="1" page="0" pageScale="1" pageWidth="1100" pageHeight="850" background="none" math="0" shadow="0">
      <root>
        <mxCell id="0" />
        <mxCell id="1" parent="0" />
        <mxCell id="9yHbJ8pnY7JybOAa-Rzh-1" value="" style="rounded=1;whiteSpace=wrap;html=1;fillColor=none;dashed=1;strokeColor=#FFFFCC;" parent="1" vertex="1">
          <mxGeometry x="10" y="160" width="160" height="480" as="geometry" />
        </mxCell>
        <mxCell id="9yHbJ8pnY7JybOAa-Rzh-2" value="&lt;font style=&quot;font-size: 24px;&quot;&gt;Sources&lt;/font&gt;" style="rounded=1;whiteSpace=wrap;html=1;strokeColor=none;fillColor=#FFFFCC;fontColor=#000000;" parent="1" vertex="1">
          <mxGeometry x="30" y="130" width="120" height="60" as="geometry" />
        </mxCell>
        <mxCell id="9yHbJ8pnY7JybOAa-Rzh-12" style="edgeStyle=orthogonalEdgeStyle;rounded=1;orthogonalLoop=1;jettySize=auto;html=1;entryX=0;entryY=0.75;entryDx=0;entryDy=0;" parent="1" source="9yHbJ8pnY7JybOAa-Rzh-3" target="9yHbJ8pnY7JybOAa-Rzh-7" edge="1">
          <mxGeometry relative="1" as="geometry" />
        </mxCell>
        <mxCell id="9yHbJ8pnY7JybOAa-Rzh-13" style="edgeStyle=orthogonalEdgeStyle;rounded=1;orthogonalLoop=1;jettySize=auto;html=1;entryX=0;entryY=0.5;entryDx=0;entryDy=0;" parent="1" source="9yHbJ8pnY7JybOAa-Rzh-3" target="9yHbJ8pnY7JybOAa-Rzh-8" edge="1">
          <mxGeometry relative="1" as="geometry" />
        </mxCell>
        <mxCell id="9yHbJ8pnY7JybOAa-Rzh-14" style="edgeStyle=orthogonalEdgeStyle;rounded=1;orthogonalLoop=1;jettySize=auto;html=1;entryX=0;entryY=0.25;entryDx=0;entryDy=0;" parent="1" source="9yHbJ8pnY7JybOAa-Rzh-3" target="9yHbJ8pnY7JybOAa-Rzh-9" edge="1">
          <mxGeometry relative="1" as="geometry" />
        </mxCell>
        <mxCell id="9yHbJ8pnY7JybOAa-Rzh-3" value="CRM" style="image;aspect=fixed;html=1;points=[];align=center;fontSize=12;image=img/lib/azure2/general/Folder_Blank.svg;rounded=1;" parent="1" vertex="1">
          <mxGeometry x="59.19" y="300" width="61.61" height="50" as="geometry" />
        </mxCell>
        <mxCell id="9yHbJ8pnY7JybOAa-Rzh-19" style="edgeStyle=orthogonalEdgeStyle;rounded=1;orthogonalLoop=1;jettySize=auto;html=1;" parent="1" source="9yHbJ8pnY7JybOAa-Rzh-4" target="9yHbJ8pnY7JybOAa-Rzh-16" edge="1">
          <mxGeometry relative="1" as="geometry" />
        </mxCell>
        <mxCell id="9yHbJ8pnY7JybOAa-Rzh-20" style="edgeStyle=orthogonalEdgeStyle;rounded=1;orthogonalLoop=1;jettySize=auto;html=1;" parent="1" source="9yHbJ8pnY7JybOAa-Rzh-4" target="9yHbJ8pnY7JybOAa-Rzh-17" edge="1">
          <mxGeometry relative="1" as="geometry" />
        </mxCell>
        <mxCell id="XbO-eKTjmLf-hu9r0S6E-1" style="edgeStyle=orthogonalEdgeStyle;rounded=1;orthogonalLoop=1;jettySize=auto;html=1;" parent="1" source="9yHbJ8pnY7JybOAa-Rzh-4" target="9yHbJ8pnY7JybOAa-Rzh-15" edge="1">
          <mxGeometry relative="1" as="geometry" />
        </mxCell>
        <mxCell id="9yHbJ8pnY7JybOAa-Rzh-4" value="ERP" style="image;aspect=fixed;html=1;points=[];align=center;fontSize=12;image=img/lib/azure2/general/Folder_Blank.svg;rounded=1;" parent="1" vertex="1">
          <mxGeometry x="59.19" y="481" width="61.61" height="50" as="geometry" />
        </mxCell>
        <mxCell id="9yHbJ8pnY7JybOAa-Rzh-5" value="" style="rounded=1;whiteSpace=wrap;html=1;fillStyle=hatch;fillColor=none;fontColor=#ffffff;strokeColor=#FFB366;" parent="1" vertex="1">
          <mxGeometry x="230" y="200" width="180" height="440" as="geometry" />
        </mxCell>
        <mxCell id="9yHbJ8pnY7JybOAa-Rzh-6" value="&lt;font style=&quot;font-size: 14px;&quot;&gt;Bronze Layer&lt;/font&gt;" style="rounded=1;whiteSpace=wrap;html=1;fillColor=light-dark(#ffe6cc, #f38816);strokeColor=none;" parent="1" vertex="1">
          <mxGeometry x="250" y="180" width="140" height="30" as="geometry" />
        </mxCell>
        <mxCell id="XbO-eKTjmLf-hu9r0S6E-12" style="edgeStyle=orthogonalEdgeStyle;rounded=1;orthogonalLoop=1;jettySize=auto;html=1;entryX=0;entryY=0.5;entryDx=0;entryDy=0;" parent="1" source="9yHbJ8pnY7JybOAa-Rzh-7" target="XbO-eKTjmLf-hu9r0S6E-6" edge="1">
          <mxGeometry relative="1" as="geometry" />
        </mxCell>
        <mxCell id="9yHbJ8pnY7JybOAa-Rzh-7" value="&lt;font style=&quot;font-size: 19px;&quot;&gt;crm_sales_details&lt;/font&gt;" style="rounded=1;whiteSpace=wrap;html=1;fillColor=light-dark(#ffe6cc, #f38816);strokeColor=#BE8800;" parent="1" vertex="1">
          <mxGeometry x="240" y="270" width="160" height="30" as="geometry" />
        </mxCell>
        <mxCell id="XbO-eKTjmLf-hu9r0S6E-13" style="edgeStyle=orthogonalEdgeStyle;rounded=1;orthogonalLoop=1;jettySize=auto;html=1;entryX=0;entryY=0.5;entryDx=0;entryDy=0;" parent="1" source="9yHbJ8pnY7JybOAa-Rzh-8" target="XbO-eKTjmLf-hu9r0S6E-7" edge="1">
          <mxGeometry relative="1" as="geometry" />
        </mxCell>
        <mxCell id="9yHbJ8pnY7JybOAa-Rzh-8" value="&lt;font style=&quot;font-size: 19px;&quot;&gt;crm_cust_info&lt;/font&gt;" style="rounded=1;whiteSpace=wrap;html=1;fillColor=light-dark(#ffe6cc, #f38816);strokeColor=#BE8800;" parent="1" vertex="1">
          <mxGeometry x="240" y="310" width="160" height="30" as="geometry" />
        </mxCell>
        <mxCell id="XbO-eKTjmLf-hu9r0S6E-14" style="edgeStyle=orthogonalEdgeStyle;rounded=1;orthogonalLoop=1;jettySize=auto;html=1;entryX=0;entryY=0.5;entryDx=0;entryDy=0;" parent="1" source="9yHbJ8pnY7JybOAa-Rzh-9" target="XbO-eKTjmLf-hu9r0S6E-8" edge="1">
          <mxGeometry relative="1" as="geometry" />
        </mxCell>
        <mxCell id="9yHbJ8pnY7JybOAa-Rzh-9" value="&lt;font style=&quot;font-size: 19px;&quot;&gt;crm_prd_info&lt;/font&gt;" style="rounded=1;whiteSpace=wrap;html=1;fillColor=light-dark(#ffe6cc, #f38816);strokeColor=#BE8800;" parent="1" vertex="1">
          <mxGeometry x="240" y="350" width="160" height="30" as="geometry" />
        </mxCell>
        <mxCell id="XbO-eKTjmLf-hu9r0S6E-15" style="edgeStyle=orthogonalEdgeStyle;rounded=1;orthogonalLoop=1;jettySize=auto;html=1;entryX=0;entryY=0.5;entryDx=0;entryDy=0;" parent="1" source="9yHbJ8pnY7JybOAa-Rzh-15" target="XbO-eKTjmLf-hu9r0S6E-9" edge="1">
          <mxGeometry relative="1" as="geometry" />
        </mxCell>
        <mxCell id="9yHbJ8pnY7JybOAa-Rzh-15" value="&lt;font style=&quot;font-size: 19px;&quot;&gt;erp_cust_az12&lt;/font&gt;" style="rounded=1;whiteSpace=wrap;html=1;fillColor=light-dark(#ffe6cc, #f38816);strokeColor=#BE8800;" parent="1" vertex="1">
          <mxGeometry x="240" y="451" width="160" height="30" as="geometry" />
        </mxCell>
        <mxCell id="XbO-eKTjmLf-hu9r0S6E-16" style="edgeStyle=orthogonalEdgeStyle;rounded=1;orthogonalLoop=1;jettySize=auto;html=1;entryX=0;entryY=0.5;entryDx=0;entryDy=0;" parent="1" source="9yHbJ8pnY7JybOAa-Rzh-16" target="XbO-eKTjmLf-hu9r0S6E-10" edge="1">
          <mxGeometry relative="1" as="geometry" />
        </mxCell>
        <mxCell id="9yHbJ8pnY7JybOAa-Rzh-16" value="&lt;font style=&quot;font-size: 19px;&quot;&gt;erp_loc_a101&lt;/font&gt;" style="rounded=1;whiteSpace=wrap;html=1;fillColor=light-dark(#ffe6cc, #f38816);strokeColor=#BE8800;" parent="1" vertex="1">
          <mxGeometry x="240" y="491" width="160" height="30" as="geometry" />
        </mxCell>
        <mxCell id="XbO-eKTjmLf-hu9r0S6E-17" style="edgeStyle=orthogonalEdgeStyle;rounded=1;orthogonalLoop=1;jettySize=auto;html=1;entryX=0;entryY=0.5;entryDx=0;entryDy=0;" parent="1" source="9yHbJ8pnY7JybOAa-Rzh-17" target="XbO-eKTjmLf-hu9r0S6E-11" edge="1">
          <mxGeometry relative="1" as="geometry" />
        </mxCell>
        <mxCell id="9yHbJ8pnY7JybOAa-Rzh-17" value="&lt;font style=&quot;font-size: 19px;&quot;&gt;erp_px_cat_g1v2&lt;/font&gt;" style="rounded=1;whiteSpace=wrap;html=1;fillColor=light-dark(#ffe6cc, #f38816);strokeColor=#BE8800;" parent="1" vertex="1">
          <mxGeometry x="239" y="531" width="160" height="30" as="geometry" />
        </mxCell>
        <mxCell id="XbO-eKTjmLf-hu9r0S6E-4" value="" style="rounded=1;whiteSpace=wrap;html=1;fillStyle=hatch;fillColor=none;fontColor=#ffffff;strokeColor=#CCCCCC;" parent="1" vertex="1">
          <mxGeometry x="472" y="200" width="180" height="440" as="geometry" />
        </mxCell>
        <mxCell id="XbO-eKTjmLf-hu9r0S6E-5" value="&lt;font style=&quot;font-size: 14px;&quot;&gt;Silver Layer&lt;/font&gt;" style="rounded=1;whiteSpace=wrap;html=1;fillColor=light-dark(#FFE6CC,#CCCCCC);strokeColor=none;" parent="1" vertex="1">
          <mxGeometry x="492" y="180" width="140" height="30" as="geometry" />
        </mxCell>
        <mxCell id="XbO-eKTjmLf-hu9r0S6E-6" value="&lt;font style=&quot;font-size: 19px;&quot;&gt;crm_sales_details&lt;/font&gt;" style="rounded=1;whiteSpace=wrap;html=1;fillColor=light-dark(#FFE6CC,#CCCCCC);strokeColor=#B3B3B3;gradientColor=none;" parent="1" vertex="1">
          <mxGeometry x="482" y="270" width="160" height="30" as="geometry" />
        </mxCell>
        <mxCell id="XbO-eKTjmLf-hu9r0S6E-7" value="&lt;font style=&quot;font-size: 19px;&quot;&gt;crm_cust_info&lt;/font&gt;" style="rounded=1;whiteSpace=wrap;html=1;fillColor=light-dark(#FFE6CC,#CCCCCC);strokeColor=#666666;" parent="1" vertex="1">
          <mxGeometry x="482" y="310" width="160" height="30" as="geometry" />
        </mxCell>
        <mxCell id="XbO-eKTjmLf-hu9r0S6E-8" value="&lt;font style=&quot;font-size: 19px;&quot;&gt;crm_prd_info&lt;/font&gt;" style="rounded=1;whiteSpace=wrap;html=1;fillColor=light-dark(#FFE6CC,#CCCCCC);strokeColor=#666666;" parent="1" vertex="1">
          <mxGeometry x="482" y="350" width="160" height="30" as="geometry" />
        </mxCell>
        <mxCell id="XbO-eKTjmLf-hu9r0S6E-9" value="&lt;font style=&quot;font-size: 19px;&quot;&gt;erp_cust_az12&lt;/font&gt;" style="rounded=1;whiteSpace=wrap;html=1;fillColor=light-dark(#FFE6CC,#CCCCCC);strokeColor=#808080;" parent="1" vertex="1">
          <mxGeometry x="482" y="451" width="160" height="30" as="geometry" />
        </mxCell>
        <mxCell id="XbO-eKTjmLf-hu9r0S6E-10" value="&lt;font style=&quot;font-size: 19px;&quot;&gt;erp_loc_a101&lt;/font&gt;" style="rounded=1;whiteSpace=wrap;html=1;fillColor=light-dark(#FFE6CC,#CCCCCC);strokeColor=#808080;" parent="1" vertex="1">
          <mxGeometry x="482" y="491" width="160" height="30" as="geometry" />
        </mxCell>
        <mxCell id="XbO-eKTjmLf-hu9r0S6E-11" value="&lt;font style=&quot;font-size: 19px;&quot;&gt;erp_px_cat_g1v2&lt;/font&gt;" style="rounded=1;whiteSpace=wrap;html=1;fillColor=light-dark(#FFE6CC,#CCCCCC);strokeColor=#4D4D4D;" parent="1" vertex="1">
          <mxGeometry x="481" y="531" width="160" height="30" as="geometry" />
        </mxCell>
        <mxCell id="N6R7vNguOrPX6i9t_lJy-2" value="" style="rounded=1;whiteSpace=wrap;html=1;fillStyle=hatch;fillColor=none;fontColor=#ffffff;strokeColor=light-dark(#FFE6CC,#FFE599);" parent="1" vertex="1">
          <mxGeometry x="742" y="201" width="180" height="440" as="geometry" />
        </mxCell>
        <mxCell id="N6R7vNguOrPX6i9t_lJy-3" value="&lt;font style=&quot;font-size: 14px;&quot;&gt;Gold Layer&lt;/font&gt;" style="rounded=1;whiteSpace=wrap;html=1;fillColor=light-dark(#FFE6CC,#FFE599);strokeColor=none;" parent="1" vertex="1">
          <mxGeometry x="761" y="181" width="140" height="30" as="geometry" />
        </mxCell>
        <mxCell id="N6R7vNguOrPX6i9t_lJy-7" value="&lt;span style=&quot;font-size: 19px;&quot;&gt;fact_sales&lt;/span&gt;" style="rounded=1;whiteSpace=wrap;html=1;fillColor=light-dark(#FFE6CC,#FFE599);strokeColor=#808080;" parent="1" vertex="1">
          <mxGeometry x="754" y="274" width="160" height="30" as="geometry" />
        </mxCell>
        <mxCell id="N6R7vNguOrPX6i9t_lJy-8" value="&lt;span style=&quot;font-size: 19px;&quot;&gt;dim_customers&lt;/span&gt;" style="rounded=1;whiteSpace=wrap;html=1;fillColor=light-dark(#FFE6CC,#FFE599);strokeColor=#808080;" parent="1" vertex="1">
          <mxGeometry x="752" y="373" width="160" height="30" as="geometry" />
        </mxCell>
        <mxCell id="N6R7vNguOrPX6i9t_lJy-9" value="&lt;span style=&quot;font-size: 19px;&quot;&gt;dim_products&lt;/span&gt;" style="rounded=1;whiteSpace=wrap;html=1;fillColor=light-dark(#FFE6CC,#FFE599);strokeColor=#4D4D4D;" parent="1" vertex="1">
          <mxGeometry x="754" y="485" width="160" height="30" as="geometry" />
        </mxCell>
        <mxCell id="N6R7vNguOrPX6i9t_lJy-10" value="" style="endArrow=classic;html=1;rounded=0;" parent="1" source="XbO-eKTjmLf-hu9r0S6E-6" target="N6R7vNguOrPX6i9t_lJy-7" edge="1">
          <mxGeometry width="50" height="50" relative="1" as="geometry">
            <mxPoint x="672" y="441" as="sourcePoint" />
            <mxPoint x="722" y="391" as="targetPoint" />
            <Array as="points" />
          </mxGeometry>
        </mxCell>
        <mxCell id="N6R7vNguOrPX6i9t_lJy-12" value="" style="endArrow=classic;html=1;rounded=0;exitX=1;exitY=0.5;exitDx=0;exitDy=0;jumpStyle=gap;entryX=0;entryY=0.5;entryDx=0;entryDy=0;" parent="1" source="XbO-eKTjmLf-hu9r0S6E-7" target="N6R7vNguOrPX6i9t_lJy-8" edge="1">
          <mxGeometry width="50" height="50" relative="1" as="geometry">
            <mxPoint x="668" y="281" as="sourcePoint" />
            <mxPoint x="764" y="418" as="targetPoint" />
            <Array as="points" />
          </mxGeometry>
        </mxCell>
        <mxCell id="N6R7vNguOrPX6i9t_lJy-13" value="" style="endArrow=classic;html=1;rounded=0;exitX=1;exitY=0.5;exitDx=0;exitDy=0;entryX=0;entryY=0.25;entryDx=0;entryDy=0;jumpStyle=gap;" parent="1" source="XbO-eKTjmLf-hu9r0S6E-9" target="N6R7vNguOrPX6i9t_lJy-8" edge="1">
          <mxGeometry width="50" height="50" relative="1" as="geometry">
            <mxPoint x="689" y="355" as="sourcePoint" />
            <mxPoint x="762" y="414" as="targetPoint" />
            <Array as="points" />
          </mxGeometry>
        </mxCell>
        <mxCell id="N6R7vNguOrPX6i9t_lJy-14" value="" style="endArrow=classic;html=1;rounded=0;exitX=1;exitY=0.5;exitDx=0;exitDy=0;entryX=0;entryY=0.25;entryDx=0;entryDy=0;jumpStyle=gap;" parent="1" source="XbO-eKTjmLf-hu9r0S6E-10" target="N6R7vNguOrPX6i9t_lJy-8" edge="1">
          <mxGeometry width="50" height="50" relative="1" as="geometry">
            <mxPoint x="628" y="506" as="sourcePoint" />
            <mxPoint x="756" y="454" as="targetPoint" />
            <Array as="points" />
          </mxGeometry>
        </mxCell>
        <mxCell id="N6R7vNguOrPX6i9t_lJy-15" value="" style="endArrow=classic;html=1;rounded=0;exitX=1;exitY=0.5;exitDx=0;exitDy=0;jumpStyle=gap;entryX=0;entryY=0.5;entryDx=0;entryDy=0;" parent="1" source="XbO-eKTjmLf-hu9r0S6E-8" target="N6R7vNguOrPX6i9t_lJy-9" edge="1">
          <mxGeometry width="50" height="50" relative="1" as="geometry">
            <mxPoint x="659" y="380" as="sourcePoint" />
            <mxPoint x="763" y="466" as="targetPoint" />
            <Array as="points" />
          </mxGeometry>
        </mxCell>
        <mxCell id="N6R7vNguOrPX6i9t_lJy-16" value="" style="endArrow=classic;html=1;rounded=0;exitX=0.994;exitY=0.5;exitDx=0;exitDy=0;exitPerimeter=0;jumpStyle=gap;entryX=0;entryY=0.5;entryDx=0;entryDy=0;" parent="1" source="XbO-eKTjmLf-hu9r0S6E-11" target="N6R7vNguOrPX6i9t_lJy-9" edge="1">
          <mxGeometry width="50" height="50" relative="1" as="geometry">
            <mxPoint x="628" y="550" as="sourcePoint" />
            <mxPoint x="763" y="462" as="targetPoint" />
            <Array as="points" />
          </mxGeometry>
        </mxCell>
        <mxCell id="N6R7vNguOrPX6i9t_lJy-18" value="" style="rounded=1;whiteSpace=wrap;html=1;strokeColor=light-dark(#FFE6CC,#FFE599);" parent="1" vertex="1">
          <mxGeometry x="298" y="50" width="307" height="60" as="geometry" />
        </mxCell>
        <mxCell id="N6R7vNguOrPX6i9t_lJy-17" value="&lt;font style=&quot;font-size: 28px;&quot;&gt;Data Flow Diagram&lt;/font&gt;" style="text;html=1;align=center;verticalAlign=middle;whiteSpace=wrap;rounded=0;strokeColor=none;fillColor=default;fontColor=light-dark(#FFE6CC,#FFE599);" parent="1" vertex="1">
          <mxGeometry x="320.5" y="58" width="262" height="46" as="geometry" />
        </mxCell>
      </root>
    </mxGraphModel>
  </diagram>
</mxfile>
